<svg width="442" height="344" viewBox="0 0 442 344" fill="none" xmlns="http://www.w3.org/2000/svg">
<g clip-path="url(#clip0)">
<path d="M372.208 0.799361L2.63314 101.743L52.427 284.22L422.002 183.276L372.208 0.799361Z" fill="#F5F5F5"/>
<path d="M374.236 -5.77098e-05L0.00328827 102.216L51.016 289.159L425.249 186.943L374.236 -5.77098e-05Z" fill="url(#paint0_linear)"/>
<path d="M377.231 19.2116L7.65619 120.155L52.3927 284.099L421.968 183.155L377.231 19.2116Z" fill="white"/>
<path d="M14.125 112.403C16.6848 111.71 18.198 109.071 17.5047 106.51C16.8114 103.949 14.1742 102.435 11.6143 103.129C9.05443 103.822 7.54127 106.461 8.23457 109.022C8.92787 111.583 11.5651 113.097 14.125 112.403Z" fill="#FF5252"/>
<path d="M29.0967 109.053C31.6691 108.35 33.1852 105.694 32.4829 103.121C31.7806 100.547 29.1259 99.0305 26.5535 99.7331C23.9812 100.436 22.4651 103.092 23.1674 105.665C23.8697 108.239 26.5243 109.756 29.0967 109.053Z" fill="#FFFF00"/>
<path d="M43.0743 105.234C45.6467 104.531 47.1628 101.875 46.4605 99.3018C45.7582 96.7281 43.1036 95.2114 40.5312 95.914C37.9588 96.6166 36.4427 99.2725 37.145 101.846C37.8473 104.42 40.5019 105.936 43.0743 105.234Z" fill="#69F0AE"/>
<path d="M104.905 93.358L7.5947 119.937L52.3906 284.098L149.701 257.519L104.905 93.358Z" fill="#FF8863"/>
<path d="M96.1432 150.842C92.4369 137.257 77.8421 129.41 63.5529 133.304C49.2636 137.197 40.6941 151.398 44.3803 164.987C47.2902 175.65 56.9016 182.776 67.8151 183.462L66.0872 177.124C64.835 172.544 67.76 167.718 72.5982 166.4C77.4164 165.083 82.3848 167.753 83.6169 172.338L85.3448 178.677C94.3902 172.529 99.0531 161.48 96.1432 150.842Z" fill="url(#paint1_linear)"/>
<path d="M71.7087 162.532L71.3608 162.627C70.5977 162.836 70.1479 163.624 70.3562 164.387L72.4483 172.054C72.6567 172.818 73.4442 173.268 74.2074 173.059L74.5553 172.964C75.3185 172.756 75.7683 171.968 75.5599 171.204L73.4678 163.537C73.2595 162.774 72.4719 162.324 71.7087 162.532Z" fill="url(#paint2_linear)"/>
<path d="M71.9308 163.978C77.4252 162.477 80.7241 157.027 79.2991 151.805C77.8742 146.583 72.265 143.567 66.7706 145.068C61.2762 146.568 57.9773 152.018 59.4023 157.24C60.8273 162.462 66.4365 165.479 71.9308 163.978Z" fill="url(#paint3_linear)"/>
<path d="M72.5781 166.395C67.76 167.713 64.84 172.539 66.0671 177.119L67.795 183.457C74.0055 183.836 80.1673 182.154 85.3248 178.672L83.5968 172.333C82.3647 167.753 77.3963 165.083 72.5781 166.395Z" fill="url(#paint4_linear)"/>
<path d="M59.1804 156.739C57.9892 155.503 57.1715 153.956 56.8214 152.275C56.6567 151.428 56.6627 150.557 56.839 149.713C57.0153 148.869 57.3584 148.069 57.8481 147.359C58.9751 145.791 60.8532 144.854 62.6864 144.177C64.5195 143.501 66.4928 143.075 68.2658 142.218C71.1855 140.806 73.4338 138.303 74.5264 135.248C75.0898 136.579 75.4576 137.985 75.6183 139.422C75.6911 140.154 75.6106 140.892 75.3821 141.591C75.1536 142.29 74.782 142.934 74.291 143.481C75.6183 142.403 75.8837 143.982 75.7936 145.029C76.7953 145.686 78.6334 145.33 79.0291 146.417C79.4772 147.486 79.6495 148.651 79.5299 149.804C79.3546 150.952 80.3363 152.631 79.1893 153.026" fill="url(#paint5_linear)"/>
<path d="M93.8392 147.575C92.6088 143.071 90.1664 138.993 86.7782 135.783C83.39 132.573 79.1861 130.355 74.6247 129.371C70.0633 128.387 65.3194 128.675 60.9103 130.203C56.5011 131.731 52.5958 134.441 49.6201 138.037C46.6444 141.633 44.7125 145.977 44.0349 150.596C43.3574 155.215 43.9602 159.931 45.7777 164.231C47.5952 168.531 50.5576 172.249 54.3419 174.98C58.1263 177.711 62.5875 179.35 67.2391 179.719L65.5112 173.381C64.9151 171.172 65.2169 168.817 66.3505 166.831C67.4841 164.844 69.3575 163.387 71.5614 162.778C73.7689 162.181 76.1225 162.483 78.1082 163.617C80.094 164.751 81.5504 166.626 82.1594 168.831L83.8873 175.169C88.1833 172.154 91.4445 167.885 93.2256 162.947C95.0068 158.008 95.221 152.64 93.8392 147.575Z" fill="#FFAE63"/>
<path d="M70.6244 158.938L70.4311 158.991C69.668 159.199 69.2182 159.987 69.4265 160.751L71.5186 168.417C71.727 169.181 72.5145 169.631 73.2777 169.422L73.471 169.369C74.2341 169.161 74.6839 168.373 74.4756 167.61L72.3835 159.943C72.1752 159.179 71.3876 158.729 70.6244 158.938Z" fill="white" stroke="white" stroke-miterlimit="10"/>
<path d="M70.9239 160.362C76.1434 158.937 79.2194 153.548 77.7945 148.326C76.3695 143.104 70.9831 140.026 65.7636 141.452C60.5441 142.877 57.468 148.266 58.893 153.488C60.3179 158.71 65.7043 161.788 70.9239 160.362Z" fill="white" stroke="white" stroke-miterlimit="10"/>
<path d="M71.5664 162.778C69.3625 163.387 67.4892 164.844 66.3555 166.831C65.2219 168.817 64.9202 171.172 65.5162 173.38L67.2391 179.719C73.1477 180.178 79.0322 178.569 83.8873 175.169L82.1594 168.831C81.5503 166.627 80.0947 164.753 78.1101 163.619C76.1256 162.485 73.7732 162.183 71.5664 162.778Z" fill="white" stroke="white" stroke-miterlimit="10"/>
<path d="M58.6696 152.961C57.5135 151.702 56.7176 150.155 56.3656 148.482C56.0225 146.796 56.3514 145.043 57.2822 143.596C58.339 142.048 60.092 141.121 61.855 140.484C63.6179 139.848 65.4711 139.437 67.1489 138.6C68.535 137.902 69.7686 136.935 70.778 135.756C71.7874 134.576 72.5525 133.208 73.0289 131.73C73.5841 133.065 73.9532 134.469 74.1258 135.904C74.2049 136.62 74.1378 137.345 73.9286 138.034C73.7193 138.723 73.3724 139.362 72.9087 139.913C74.1608 138.856 74.4113 140.454 74.3762 141.476C75.3228 142.143 77.0908 141.812 77.4815 142.899C77.9275 143.968 78.1112 145.128 78.0174 146.282C77.8621 147.424 78.8238 149.108 77.7319 149.489" fill="white"/>
<path d="M58.6696 152.961C57.5135 151.702 56.7176 150.155 56.3656 148.482C56.0225 146.796 56.3514 145.043 57.2822 143.596C58.339 142.048 60.092 141.121 61.855 140.484C63.6179 139.848 65.4711 139.437 67.1489 138.6C68.535 137.902 69.7686 136.935 70.778 135.756C71.7874 134.576 72.5525 133.208 73.0289 131.73C73.5841 133.065 73.9532 134.469 74.1258 135.904C74.2049 136.62 74.1378 137.345 73.9286 138.034C73.7193 138.723 73.3724 139.362 72.9087 139.913C74.1608 138.856 74.4113 140.454 74.3762 141.476C75.3228 142.143 77.0908 141.812 77.4815 142.899C77.9275 143.968 78.1112 145.128 78.0174 146.282C77.8621 147.424 78.8238 149.108 77.7319 149.489" stroke="white" stroke-miterlimit="10"/>
<path d="M73.3695 139.587C73.3695 139.587 80.121 138.36 78.0975 149.434L73.3695 139.587Z" fill="white"/>
<path opacity="0.1" d="M127.047 175.506L29.7375 202.085L52.0642 283.904L149.374 257.325L127.047 175.506Z" fill="black"/>
<path d="M100.796 201.602L53.1753 214.609L54.4469 219.269L102.068 206.262L100.796 201.602Z" fill="white"/>
<path d="M115.152 209.366L56.1424 225.483L57.414 230.143L116.423 214.026L115.152 209.366Z" fill="white"/>
<path d="M194.627 79.6606L124.234 98.8872L133.703 133.585L204.095 114.359L194.627 79.6606Z" fill="#F5F5F5"/>
<path d="M203.814 113.318L133.421 132.544L142.89 167.242L213.282 148.016L203.814 113.318Z" fill="#E0E0E0"/>
<path d="M361.818 33.9979L291.425 53.2246L300.893 87.9226L371.286 68.6959L361.818 33.9979Z" fill="#F5F5F5"/>
<path d="M371 67.655L300.607 86.8817L310.075 121.58L380.468 102.353L371 67.655Z" fill="#E0E0E0"/>
<path d="M277.964 56.8973L207.571 76.124L217.039 110.822L287.432 91.5954L277.964 56.8973Z" fill="#F5F5F5"/>
<path d="M287.147 90.5606L216.755 109.787L226.223 144.485L296.616 125.259L287.147 90.5606Z" fill="#E0E0E0"/>
<path d="M213.947 158.351L143.897 177.332L153.244 211.861L223.294 192.88L213.947 158.351Z" fill="#E0E0E0"/>
<path d="M225.29 192.034L154.897 211.26L164.365 245.958L234.758 226.732L225.29 192.034Z" fill="#BDBDBD"/>
<path d="M383.292 112.709L312.899 131.936L322.368 166.634L392.761 147.407L383.292 112.709Z" fill="#F5F5F5"/>
<path d="M392.481 146.371L322.088 165.598L331.556 200.296L401.949 181.069L392.481 146.371Z" fill="#BDBDBD"/>
<path d="M299.44 135.613L229.047 154.84L238.515 189.538L308.908 170.311L299.44 135.613Z" fill="#F5F5F5"/>
<path d="M308.627 169.27L238.234 188.497L247.702 223.195L318.095 203.968L308.627 169.27Z" fill="#BDBDBD"/>
<path d="M145.89 137.488C150.178 136.317 152.769 132.121 151.676 128.116C150.583 124.112 146.221 121.815 141.933 122.986C137.645 124.157 135.054 128.353 136.147 132.358C137.24 136.362 141.602 138.659 145.89 137.488Z" fill="url(#paint6_linear)"/>
<path d="M143.919 136.314C147.619 135.312 149.805 131.499 148.803 127.798C147.801 124.097 143.991 121.91 140.292 122.912C136.592 123.914 134.406 127.727 135.408 131.428C136.41 135.129 140.22 137.316 143.919 136.314Z" fill="#FFAE63"/>
<path d="M228.192 115.008C232.48 113.836 235.071 109.641 233.978 105.636C232.885 101.631 228.523 99.3346 224.235 100.506C219.946 101.677 217.356 105.873 218.449 109.878C219.542 113.882 223.904 116.179 228.192 115.008Z" fill="url(#paint7_linear)"/>
<path d="M227.91 113.974C231.627 112.959 233.818 109.121 232.803 105.402C231.788 101.683 227.952 99.4918 224.235 100.507C220.518 101.522 218.327 105.36 219.342 109.079C220.357 112.798 224.193 114.99 227.91 113.974Z" fill="#FFAE63"/>
<path d="M313.081 91.8202C317.369 90.6489 319.96 86.4531 318.867 82.4485C317.774 78.4439 313.412 76.1471 309.124 77.3183C304.836 78.4896 302.245 82.6854 303.338 86.69C304.431 90.6946 308.793 92.9914 313.081 91.8202Z" fill="url(#paint8_linear)"/>
<path d="M312.799 90.7869C316.516 89.7716 318.707 85.9338 317.692 82.2149C316.677 78.4959 312.841 76.3042 309.124 77.3195C305.407 78.3348 303.216 82.1726 304.231 85.8915C305.246 89.6104 309.082 91.8022 312.799 90.7869Z" fill="#FFAE63"/>
<path d="M167.512 216.718C171.8 215.547 174.39 211.351 173.298 207.347C172.205 203.342 167.843 201.045 163.555 202.217C159.266 203.388 156.676 207.584 157.769 211.588C158.861 215.593 163.224 217.89 167.512 216.718Z" fill="url(#paint9_linear)"/>
<path d="M167.23 215.686C170.947 214.671 173.138 210.833 172.123 207.114C171.108 203.396 167.272 201.204 163.555 202.219C159.838 203.234 157.647 207.072 158.662 210.791C159.677 214.51 163.513 216.702 167.23 215.686Z" fill="#2196F3"/>
<path d="M249.813 194.238C254.102 193.067 256.692 188.871 255.599 184.867C254.507 180.862 250.144 178.565 245.856 179.737C241.568 180.908 238.978 185.104 240.07 189.108C241.163 193.113 245.525 195.41 249.813 194.238Z" fill="url(#paint10_linear)"/>
<path d="M249.527 193.206C253.244 192.191 255.434 188.353 254.42 184.634C253.405 180.915 249.569 178.724 245.852 179.739C242.134 180.754 239.944 184.592 240.959 188.311C241.973 192.03 245.809 194.222 249.527 193.206Z" fill="#2196F3"/>
<path d="M334.698 171.052C338.986 169.881 341.576 165.685 340.484 161.68C339.391 157.676 335.029 155.379 330.741 156.55C326.452 157.722 323.862 161.917 324.955 165.922C326.047 169.927 330.41 172.223 334.698 171.052Z" fill="url(#paint11_linear)"/>
<path d="M334.416 170.019C338.133 169.004 340.324 165.166 339.309 161.447C338.294 157.728 334.458 155.536 330.741 156.551C327.024 157.567 324.833 161.405 325.848 165.123C326.862 168.842 330.698 171.034 334.416 170.019Z" fill="#2196F3"/>
<path d="M439.836 150.451H56.7363V339.605H439.836V150.451Z" fill="#F5F5F5"/>
<path d="M442 150.215H54.0717V344H442V150.215Z" fill="url(#paint12_linear)"/>
<path d="M439.836 169.542H56.7363V339.485H439.836V169.542Z" fill="white"/>
<path d="M65.8567 164.481C68.5233 164.481 70.6849 162.319 70.6849 159.651C70.6849 156.983 68.5233 154.82 65.8567 154.82C63.1902 154.82 61.0285 156.983 61.0285 159.651C61.0285 162.319 63.1902 164.481 65.8567 164.481Z" fill="#FF5252"/>
<path d="M80.3413 164.481C83.0078 164.481 85.1695 162.319 85.1695 159.651C85.1695 156.983 83.0078 154.82 80.3413 154.82C77.6748 154.82 75.5131 156.983 75.5131 159.651C75.5131 162.319 77.6748 164.481 80.3413 164.481Z" fill="#FFFF00"/>
<path d="M94.8309 164.481C97.4974 164.481 99.6591 162.319 99.6591 159.651C99.6591 156.983 97.4974 154.82 94.8309 154.82C92.1644 154.82 90.0027 156.983 90.0027 159.651C90.0027 162.319 92.1644 164.481 94.8309 164.481Z" fill="#69F0AE"/>
<path d="M157.607 169.317H56.7363V339.485H157.607V169.317Z" fill="#FF8863"/>
<path d="M134.017 222.462C134.017 208.381 121.997 196.962 107.192 196.962C92.3868 196.962 80.3614 208.376 80.3614 222.462C80.3614 233.516 87.7589 242.921 98.1065 246.459V239.89C98.1065 235.139 102.193 231.256 107.192 231.256C112.2 231.256 116.277 235.139 116.277 239.89V246.459C126.62 242.921 134.017 233.511 134.017 222.462Z" fill="url(#paint13_linear)"/>
<path d="M107.367 227.302H107.007C106.215 227.302 105.574 227.944 105.574 228.735V236.683C105.574 237.474 106.215 238.116 107.007 238.116H107.367C108.158 238.116 108.8 237.474 108.8 236.683V228.735C108.8 227.944 108.158 227.302 107.367 227.302Z" fill="url(#paint14_linear)"/>
<path d="M107.207 228.755C112.902 228.755 117.519 224.367 117.519 218.954C117.519 213.541 112.902 209.153 107.207 209.153C101.511 209.153 96.8944 213.541 96.8944 218.954C96.8944 224.367 101.511 228.755 107.207 228.755Z" fill="url(#paint15_linear)"/>
<path d="M107.192 231.256C102.183 231.256 98.1065 235.139 98.1065 239.89V246.459C103.997 248.459 110.382 248.459 116.272 246.459V239.89C116.272 235.139 112.185 231.256 107.192 231.256Z" fill="url(#paint16_linear)"/>
<path d="M96.7892 218.408C95.9646 216.901 95.5826 215.192 95.6874 213.477C95.7515 212.618 95.9865 211.78 96.3787 211.012C96.7709 210.244 97.3123 209.563 97.9712 209.008C99.4738 207.79 101.512 207.359 103.481 207.209C105.449 207.058 107.442 207.149 109.381 206.788C112.569 206.194 115.396 204.371 117.254 201.712C117.447 203.145 117.432 204.598 117.209 206.026C117.086 206.751 116.814 207.442 116.409 208.055C116.005 208.668 115.477 209.191 114.86 209.589C116.428 208.902 116.257 210.516 115.917 211.483C116.693 212.375 118.581 212.52 118.676 213.673C118.833 214.824 118.697 215.996 118.281 217.08C117.805 218.142 118.316 220.017 117.104 220.087" fill="url(#paint17_linear)"/>
<path d="M132.655 218.704C132.655 214.035 131.373 209.456 128.95 205.466C126.527 201.475 123.055 198.227 118.913 196.076C114.772 193.924 110.119 192.951 105.463 193.263C100.807 193.575 96.3256 195.16 92.508 197.846C88.6903 200.531 85.6828 204.213 83.8133 208.491C81.9438 212.769 81.284 217.478 81.906 222.105C82.5279 226.732 84.4078 231.1 87.3404 234.732C90.2731 238.363 94.1461 241.12 98.5372 242.701V236.141C98.5438 233.854 99.4551 231.661 101.072 230.044C102.689 228.426 104.88 227.514 107.167 227.508C109.458 227.508 111.655 228.416 113.278 230.035C114.9 231.653 115.815 233.849 115.822 236.141V242.711C120.755 240.928 125.019 237.666 128.032 233.37C131.044 229.073 132.659 223.952 132.655 218.704Z" fill="#FFAE63"/>
<path d="M107.272 223.544H107.072C106.281 223.544 105.639 224.186 105.639 224.977V232.924C105.639 233.716 106.281 234.358 107.072 234.358H107.272C108.063 234.358 108.704 233.716 108.704 232.924V224.977C108.704 224.186 108.063 223.544 107.272 223.544Z" fill="white" stroke="white" stroke-miterlimit="10"/>
<path d="M107.187 224.997C112.597 224.997 116.983 220.609 116.983 215.196C116.983 209.783 112.597 205.395 107.187 205.395C101.776 205.395 97.3902 209.783 97.3902 215.196C97.3902 220.609 101.776 224.997 107.187 224.997Z" fill="white" stroke="white" stroke-miterlimit="10"/>
<path d="M107.172 227.498C104.883 227.504 102.691 228.417 101.074 230.037C99.4563 231.657 98.5462 233.852 98.5422 236.141V242.711C104.122 244.711 110.222 244.711 115.801 242.711V236.141C115.798 233.852 114.887 231.657 113.27 230.037C111.653 228.417 109.46 227.504 107.172 227.498Z" fill="white" stroke="white" stroke-miterlimit="10"/>
<path d="M97.2901 214.655C96.5047 213.135 96.1431 211.432 96.2433 209.724C96.3574 208.008 97.1374 206.404 98.417 205.255C99.8444 204.037 101.778 203.606 103.646 203.456C105.514 203.305 107.407 203.395 109.25 203.035C110.772 202.727 112.216 202.119 113.501 201.248C114.785 200.377 115.884 199.259 116.733 197.959C116.918 199.392 116.904 200.844 116.693 202.273C116.582 202.988 116.327 203.672 115.943 204.285C115.559 204.897 115.054 205.425 114.459 205.836C115.962 205.149 115.786 206.763 115.461 207.73C116.197 208.622 117.965 208.767 118.08 209.92C118.229 211.069 118.1 212.238 117.705 213.327C117.254 214.389 117.735 216.263 116.588 216.333" fill="white"/>
<path d="M97.2901 214.655C96.5047 213.135 96.1431 211.432 96.2433 209.724C96.3574 208.008 97.1374 206.404 98.417 205.255C99.8444 204.037 101.778 203.606 103.646 203.456C105.514 203.305 107.407 203.395 109.25 203.035C110.772 202.727 112.216 202.119 113.501 201.248C114.785 200.377 115.884 199.259 116.733 197.959C116.918 199.392 116.904 200.844 116.693 202.273C116.582 202.988 116.327 203.672 115.943 204.285C115.559 204.897 115.054 205.425 114.459 205.836C115.962 205.149 115.786 206.763 115.461 207.73C116.197 208.622 117.965 208.767 118.08 209.92C118.229 211.069 118.1 212.238 117.705 213.327C117.254 214.389 117.735 216.263 116.588 216.333" stroke="white" stroke-miterlimit="10"/>
<path d="M115.015 205.575C115.015 205.575 121.852 206.172 116.984 216.323L115.015 205.575Z" fill="white"/>
<path opacity="0.1" d="M157.337 254.401H56.4658V339.215H157.337V254.401Z" fill="black"/>
<path d="M125.147 272.65H75.7836V277.481H125.147V272.65Z" fill="white"/>
<path d="M244.795 198.034H195.432V202.864H244.795V198.034Z" fill="#BDBDBD"/>
<path d="M371.956 227.022H195.432V231.852H371.956V227.022Z" fill="#E0E0E0"/>
<path d="M371.956 256.009H195.432V260.84H371.956V256.009Z" fill="#E0E0E0"/>
<path d="M244.795 284.997H195.432V289.828H244.795V284.997Z" fill="#E67B59"/>
<path d="M308.108 284.997H258.744V289.828H308.108V284.997Z" fill="#F5F5F5"/>
<path d="M371.961 284.997H322.597V289.828H371.961V284.997Z" fill="#E67B59"/>
<path d="M136.952 283.925H75.7836V288.755H136.952V283.925Z" fill="white"/>
</g>
<defs>
<linearGradient id="paint0_linear" x1="238.127" y1="238.052" x2="187.07" y2="51.1214" gradientUnits="userSpaceOnUse">
<stop stop-color="#808080" stop-opacity="0.25"/>
<stop offset="0.54" stop-color="#808080" stop-opacity="0.12"/>
<stop offset="1" stop-color="#808080" stop-opacity="0.1"/>
</linearGradient>
<linearGradient id="paint1_linear" x1="76.5774" y1="181.062" x2="63.5375" y2="133.321" gradientUnits="userSpaceOnUse">
<stop stop-opacity="0.12"/>
<stop offset="0.55" stop-opacity="0.09"/>
<stop offset="1" stop-opacity="0.02"/>
</linearGradient>
<linearGradient id="paint2_linear" x1="-94.4392" y1="3145.15" x2="-155.922" y2="2920.05" gradientUnits="userSpaceOnUse">
<stop stop-opacity="0.12"/>
<stop offset="0.55" stop-opacity="0.09"/>
<stop offset="1" stop-opacity="0.02"/>
</linearGradient>
<linearGradient id="paint3_linear" x1="-6374.39" y1="6765.62" x2="-6576.44" y2="6025.9" gradientUnits="userSpaceOnUse">
<stop stop-opacity="0.12"/>
<stop offset="0.55" stop-opacity="0.09"/>
<stop offset="1" stop-opacity="0.02"/>
</linearGradient>
<linearGradient id="paint4_linear" x1="-7794.25" y1="4919.82" x2="-7794.25" y2="4338.07" gradientUnits="userSpaceOnUse">
<stop stop-opacity="0.12"/>
<stop offset="0.55" stop-opacity="0.09"/>
<stop offset="1" stop-opacity="0.02"/>
</linearGradient>
<linearGradient id="paint5_linear" x1="-9216.56" y1="4795.69" x2="-9216.56" y2="4006.95" gradientUnits="userSpaceOnUse">
<stop stop-opacity="0.12"/>
<stop offset="0.55" stop-opacity="0.09"/>
<stop offset="1" stop-opacity="0.02"/>
</linearGradient>
<linearGradient id="paint6_linear" x1="136.147" y1="132.358" x2="151.677" y2="128.12" gradientUnits="userSpaceOnUse">
<stop stop-opacity="0.09"/>
<stop offset="0.55" stop-opacity="0.07"/>
<stop offset="1" stop-opacity="0.02"/>
</linearGradient>
<linearGradient id="paint7_linear" x1="-40.7237" y1="3458.12" x2="458.411" y2="3321.91" gradientUnits="userSpaceOnUse">
<stop stop-opacity="0.09"/>
<stop offset="0.55" stop-opacity="0.07"/>
<stop offset="1" stop-opacity="0.02"/>
</linearGradient>
<linearGradient id="paint8_linear" x1="2763.35" y1="2668.2" x2="3262.48" y2="2531.99" gradientUnits="userSpaceOnUse">
<stop stop-opacity="0.09"/>
<stop offset="0.55" stop-opacity="0.07"/>
<stop offset="1" stop-opacity="0.02"/>
</linearGradient>
<linearGradient id="paint9_linear" x1="-2068.91" y1="6671.68" x2="-1569.78" y2="6535.48" gradientUnits="userSpaceOnUse">
<stop stop-opacity="0.09"/>
<stop offset="0.55" stop-opacity="0.07"/>
<stop offset="1" stop-opacity="0.02"/>
</linearGradient>
<linearGradient id="paint10_linear" x1="649.616" y1="5905.84" x2="1148.75" y2="5769.64" gradientUnits="userSpaceOnUse">
<stop stop-opacity="0.09"/>
<stop offset="0.55" stop-opacity="0.07"/>
<stop offset="1" stop-opacity="0.02"/>
</linearGradient>
<linearGradient id="paint11_linear" x1="3453.69" y1="5115.92" x2="3952.83" y2="4979.72" gradientUnits="userSpaceOnUse">
<stop stop-opacity="0.09"/>
<stop offset="0.55" stop-opacity="0.07"/>
<stop offset="1" stop-opacity="0.02"/>
</linearGradient>
<linearGradient id="paint12_linear" x1="192168" y1="133185" x2="192168" y2="58243" gradientUnits="userSpaceOnUse">
<stop stop-color="#808080" stop-opacity="0.25"/>
<stop offset="0.54" stop-color="#808080" stop-opacity="0.12"/>
<stop offset="1" stop-color="#808080" stop-opacity="0.1"/>
</linearGradient>
<linearGradient id="paint13_linear" x1="20081.7" y1="29825.5" x2="20081.7" y2="24936.2" gradientUnits="userSpaceOnUse">
<stop stop-opacity="0.12"/>
<stop offset="0.55" stop-opacity="0.09"/>
<stop offset="1" stop-opacity="0.02"/>
</linearGradient>
<linearGradient id="paint14_linear" x1="795.891" y1="5365.74" x2="795.891" y2="5132.49" gradientUnits="userSpaceOnUse">
<stop stop-opacity="0.12"/>
<stop offset="0.55" stop-opacity="0.09"/>
<stop offset="1" stop-opacity="0.02"/>
</linearGradient>
<linearGradient id="paint15_linear" x1="4511.67" y1="9157.87" x2="4511.67" y2="8391.21" gradientUnits="userSpaceOnUse">
<stop stop-opacity="0.12"/>
<stop offset="0.55" stop-opacity="0.09"/>
<stop offset="1" stop-opacity="0.02"/>
</linearGradient>
<linearGradient id="paint16_linear" x1="6869.78" y1="10279.4" x2="6869.78" y2="9722.69" gradientUnits="userSpaceOnUse">
<stop stop-opacity="0.12"/>
<stop offset="0.55" stop-opacity="0.09"/>
<stop offset="1" stop-opacity="0.02"/>
</linearGradient>
<linearGradient id="paint17_linear" x1="8695.97" y1="10234.2" x2="8695.97" y2="9559.81" gradientUnits="userSpaceOnUse">
<stop stop-opacity="0.12"/>
<stop offset="0.55" stop-opacity="0.09"/>
<stop offset="1" stop-opacity="0.02"/>
</linearGradient>
<clipPath id="clip0">
<rect width="442" height="344" fill="white"/>
</clipPath>
</defs>
</svg>
